<svg width="0" height="0" class="hidden">
    <symbol viewBox="0 0 24 24" fill="none" xmlns="http://www.w3.org/2000/svg" id="success">
        <path d="M14.72 8.79L10.43 13.09L8.78 11.44C8.69035 11.3353 8.58003 11.2503 8.45597 11.1903C8.3319 11.1303 8.19677 11.0965 8.05905 11.0912C7.92133 11.0859 7.784 11.1091 7.65567 11.1594C7.52735 11.2096 7.4108 11.2859 7.31335 11.3833C7.21589 11.4808 7.13963 11.5974 7.08936 11.7257C7.03908 11.854 7.01588 11.9913 7.0212 12.1291C7.02652 12.2668 7.06025 12.4019 7.12027 12.526C7.18029 12.65 7.26531 12.7604 7.37 12.85L9.72 15.21C9.81344 15.3027 9.92425 15.376 10.0461 15.4258C10.1679 15.4755 10.2984 15.5008 10.43 15.5C10.6923 15.4989 10.9437 15.3947 11.13 15.21L16.13 10.21C16.2237 10.117 16.2981 10.0064 16.3489 9.88458C16.3997 9.76272 16.4258 9.63201 16.4258 9.5C16.4258 9.36799 16.3997 9.23728 16.3489 9.11542C16.2981 8.99356 16.2237 8.88296 16.13 8.79C15.9426 8.60375 15.6892 8.49921 15.425 8.49921C15.1608 8.49921 14.9074 8.60375 14.72 8.79ZM12 2C10.0222 2 8.08879 2.58649 6.44429 3.6853C4.7998 4.78412 3.51808 6.3459 2.7612 8.17317C2.00433 10.0004 1.80629 12.0111 2.19214 13.9509C2.578 15.8907 3.5304 17.6725 4.92893 19.0711C6.32745 20.4696 8.10928 21.422 10.0491 21.8079C11.9889 22.1937 13.9996 21.9957 15.8268 21.2388C17.6541 20.4819 19.2159 19.2002 20.3147 17.5557C21.4135 15.9112 22 13.9778 22 12C22 10.6868 21.7413 9.38642 21.2388 8.17317C20.7362 6.95991 19.9996 5.85752 19.0711 4.92893C18.1425 4.00035 17.0401 3.26375 15.8268 2.7612C14.6136 2.25866 13.3132 2 12 2V2ZM12 20C10.4177 20 8.87103 19.5308 7.55543 18.6518C6.23984 17.7727 5.21446 16.5233 4.60896 15.0615C4.00346 13.5997 3.84503 11.9911 4.15371 10.4393C4.4624 8.88743 5.22432 7.46197 6.34314 6.34315C7.46196 5.22433 8.88743 4.4624 10.4393 4.15372C11.9911 3.84504 13.5997 4.00346 15.0615 4.60896C16.5233 5.21447 17.7727 6.23984 18.6518 7.55544C19.5308 8.87103 20 10.4177 20 12C20 14.1217 19.1571 16.1566 17.6569 17.6569C16.1566 19.1571 14.1217 20 12 20V20Z"
              fill="currentColor"/>
    </symbol>
    <symbol viewBox="0 0 24 24" fill="none" xmlns="http://www.w3.org/2000/svg" id="warning">
        <path d="M12 7C11.7348 7 11.4804 7.10536 11.2929 7.29289C11.1054 7.48043 11 7.73478 11 8V12C11 12.2652 11.1054 12.5196 11.2929 12.7071C11.4804 12.8946 11.7348 13 12 13C12.2652 13 12.5196 12.8946 12.7071 12.7071C12.8946 12.5196 13 12.2652 13 12V8C13 7.73478 12.8946 7.48043 12.7071 7.29289C12.5196 7.10536 12.2652 7 12 7ZM12.92 15.62C12.8981 15.5563 12.8678 15.4957 12.83 15.44L12.71 15.29C12.5694 15.1512 12.3908 15.0572 12.1968 15.0199C12.0028 14.9825 11.8021 15.0034 11.62 15.08C11.4988 15.1306 11.3872 15.2017 11.29 15.29C11.1973 15.3834 11.124 15.4943 11.0742 15.6161C11.0245 15.7379 10.9992 15.8684 11 16C11.0016 16.1307 11.0288 16.2598 11.08 16.38C11.1249 16.5041 11.1966 16.6168 11.2899 16.7101C11.3832 16.8034 11.4959 16.8751 11.62 16.92C11.7397 16.9729 11.8691 17.0002 12 17.0002C12.1309 17.0002 12.2603 16.9729 12.38 16.92C12.5041 16.8751 12.6168 16.8034 12.7101 16.7101C12.8034 16.6168 12.8751 16.5041 12.92 16.38C12.9712 16.2598 12.9984 16.1307 13 16C13.0049 15.9334 13.0049 15.8666 13 15.8C12.9828 15.7362 12.9558 15.6755 12.92 15.62V15.62ZM12 2C10.0222 2 8.08879 2.58649 6.4443 3.6853C4.79981 4.78412 3.51808 6.3459 2.76121 8.17317C2.00433 10.0004 1.8063 12.0111 2.19215 13.9509C2.578 15.8907 3.53041 17.6725 4.92893 19.0711C6.32746 20.4696 8.10929 21.422 10.0491 21.8079C11.9889 22.1937 13.9996 21.9957 15.8268 21.2388C17.6541 20.4819 19.2159 19.2002 20.3147 17.5557C21.4135 15.9112 22 13.9778 22 12C22 10.6868 21.7413 9.38642 21.2388 8.17317C20.7362 6.95991 19.9997 5.85752 19.0711 4.92893C18.1425 4.00035 17.0401 3.26375 15.8268 2.7612C14.6136 2.25866 13.3132 2 12 2V2ZM12 20C10.4178 20 8.87103 19.5308 7.55544 18.6518C6.23985 17.7727 5.21447 16.5233 4.60896 15.0615C4.00346 13.5997 3.84504 11.9911 4.15372 10.4393C4.4624 8.88743 5.22433 7.46197 6.34315 6.34315C7.46197 5.22433 8.88743 4.4624 10.4393 4.15372C11.9911 3.84504 13.5997 4.00346 15.0615 4.60896C16.5233 5.21447 17.7727 6.23984 18.6518 7.55544C19.5308 8.87103 20 10.4177 20 12C20 14.1217 19.1571 16.1566 17.6569 17.6569C16.1566 19.1571 14.1217 20 12 20V20Z"
              fill="currentColor"/>
    </symbol>
    <symbol viewBox="0 0 24 24" fill="none" xmlns="http://www.w3.org/2000/svg" id="error">
        <path d="M12 21C10.8181 21 9.64778 20.7672 8.55585 20.3149C7.46392 19.8626 6.47177 19.1997 5.63604 18.364C4.80031 17.5282 4.13738 16.5361 3.68508 15.4442C3.23279 14.3522 3 13.1819 3 12C3 10.8181 3.23279 9.64778 3.68508 8.55585C4.13738 7.46392 4.80031 6.47177 5.63604 5.63604C6.47177 4.80031 7.46392 4.13738 8.55585 3.68508C9.64778 3.23279 10.8181 3 12 3C13.1819 3 14.3522 3.23279 15.4442 3.68508C16.5361 4.13738 17.5282 4.80031 18.364 5.63604C19.1997 6.47177 19.8626 7.46392 20.3149 8.55585C20.7672 9.64778 21 10.8181 21 12C21 13.1819 20.7672 14.3522 20.3149 15.4442C19.8626 16.5361 19.1997 17.5282 18.364 18.364C17.5282 19.1997 16.5361 19.8626 15.4441 20.3149C14.3522 20.7672 13.1819 21 12 21L12 21Z"
              stroke="currentColor" stroke-width="2" stroke-linecap="round"/>
        <path d="M9 9L15 15" stroke="currentColor" stroke-width="2" stroke-linecap="round"/>
        <path d="M15 9L9 15" stroke="currentColor" stroke-width="2" stroke-linecap="round"/>
    </symbol>
    <symbol viewBox="0 0 24 24" fill="none" xmlns="http://www.w3.org/2000/svg" id="info">
        <path d="M12 11C11.7348 11 11.4804 11.1054 11.2929 11.2929C11.1054 11.4804 11 11.7348 11 12V16C11 16.2652 11.1054 16.5196 11.2929 16.7071C11.4804 16.8946 11.7348 17 12 17C12.2652 17 12.5196 16.8946 12.7071 16.7071C12.8946 16.5196 13 16.2652 13 16V12C13 11.7348 12.8946 11.4804 12.7071 11.2929C12.5196 11.1054 12.2652 11 12 11ZM12.38 7.08C12.1365 6.97998 11.8635 6.97998 11.62 7.08C11.4972 7.12759 11.3851 7.19896 11.29 7.29C11.2017 7.3872 11.1306 7.49881 11.08 7.62C11.024 7.73868 10.9966 7.86882 11 8C10.9992 8.13161 11.0245 8.26207 11.0742 8.38391C11.124 8.50574 11.1973 8.61656 11.29 8.71C11.3872 8.79833 11.4988 8.86936 11.62 8.92C11.7715 8.98224 11.936 9.00632 12.0989 8.99011C12.2619 8.97391 12.4184 8.91792 12.5547 8.82707C12.691 8.73622 12.8029 8.61328 12.8805 8.46907C12.9582 8.32486 12.9992 8.16378 13 8C12.9963 7.73523 12.8927 7.48163 12.71 7.29C12.6149 7.19896 12.5028 7.12759 12.38 7.08ZM12 2C10.0222 2 8.08879 2.58649 6.4443 3.6853C4.79981 4.78412 3.51808 6.3459 2.76121 8.17317C2.00433 10.0004 1.8063 12.0111 2.19215 13.9509C2.578 15.8907 3.53041 17.6725 4.92893 19.0711C6.32746 20.4696 8.10929 21.422 10.0491 21.8079C11.9889 22.1937 13.9996 21.9957 15.8268 21.2388C17.6541 20.4819 19.2159 19.2002 20.3147 17.5557C21.4135 15.9112 22 13.9778 22 12C22 10.6868 21.7413 9.38642 21.2388 8.17317C20.7362 6.95991 19.9997 5.85752 19.0711 4.92893C18.1425 4.00035 17.0401 3.26375 15.8268 2.7612C14.6136 2.25866 13.3132 2 12 2V2ZM12 20C10.4178 20 8.87103 19.5308 7.55544 18.6518C6.23985 17.7727 5.21447 16.5233 4.60896 15.0615C4.00346 13.5997 3.84504 11.9911 4.15372 10.4393C4.4624 8.88743 5.22433 7.46197 6.34315 6.34315C7.46197 5.22433 8.88743 4.4624 10.4393 4.15372C11.9911 3.84504 13.5997 4.00346 15.0615 4.60896C16.5233 5.21447 17.7727 6.23984 18.6518 7.55544C19.5308 8.87103 20 10.4177 20 12C20 14.1217 19.1571 16.1566 17.6569 17.6569C16.1566 19.1571 14.1217 20 12 20V20Z"
              fill="currentColor"/>
    </symbol>
    <symbol viewBox="0 0 24 24" fill="none" xmlns="http://www.w3.org/2000/svg" id="close">
        <path d="M13.41 12L19.71 5.71C19.8983 5.52169 20.0041 5.2663 20.0041 5C20.0041 4.7337 19.8983 4.4783 19.71 4.29C19.5217 4.10169 19.2663 3.99591 19 3.99591C18.7337 3.99591 18.4783 4.10169 18.29 4.29L12 10.59L5.71 4.29C5.5217 4.10169 5.2663 3.99591 5 3.99591C4.7337 3.99591 4.4783 4.10169 4.29 4.29C4.1017 4.4783 3.99591 4.7337 3.99591 5C3.99591 5.2663 4.1017 5.52169 4.29 5.71L10.59 12L4.29 18.29C4.19627 18.383 4.12188 18.4936 4.07111 18.6154C4.02034 18.7373 3.9942 18.868 3.9942 19C3.9942 19.132 4.02034 19.2627 4.07111 19.3846C4.12188 19.5064 4.19627 19.617 4.29 19.71C4.38296 19.8037 4.49356 19.8781 4.61542 19.9289C4.73728 19.9797 4.86799 20.0058 5 20.0058C5.13201 20.0058 5.26272 19.9797 5.38458 19.9289C5.50644 19.8781 5.61704 19.8037 5.71 19.71L12 13.41L18.29 19.71C18.383 19.8037 18.4936 19.8781 18.6154 19.9289C18.7373 19.9797 18.868 20.0058 19 20.0058C19.132 20.0058 19.2627 19.9797 19.3846 19.9289C19.5064 19.8781 19.617 19.8037 19.71 19.71C19.8037 19.617 19.8781 19.5064 19.9289 19.3846C19.9797 19.2627 20.0058 19.132 20.0058 19C20.0058 18.868 19.9797 18.7373 19.9289 18.6154C19.8781 18.4936 19.8037 18.383 19.71 18.29L13.41 12Z"
              fill="currentColor"/>
    </symbol>
</svg>
