<svg width="0" height="0" class="hidden">
    <symbol viewBox="0 0 24 24" fill="none" xmlns="http://www.w3.org/2000/svg" id="happy">
        <circle id="Ellipse 87" cx="12" cy="12" r="9.5" stroke="currentColor" stroke-linecap="round"/>
        <path id="Ellipse 90"
              d="M8.20857 15.378C8.63044 15.7433 9.20751 16.0237 9.86133 16.2124C10.5191 16.4023 11.256 16.5 12 16.5C12.744 16.5 13.4809 16.4023 14.1387 16.2124C14.7925 16.0237 15.3696 15.7433 15.7914 15.378"
              stroke="currentColor" stroke-linecap="round"/>
        <circle id="Ellipse 88" cx="9" cy="10" r="1" fill="currentColor" stroke="currentColor" stroke-linecap="round"/>
        <circle id="Ellipse 89" cx="15" cy="10" r="1" fill="currentColor" stroke="currentColor" stroke-linecap="round"/>
    </symbol>
    <symbol viewBox="0 0 24 24" fill="none" xmlns="http://www.w3.org/2000/svg" id="slight_happy">
        <circle cx="12" cy="12" r="9.5" stroke="currentColor" stroke-linecap="round"/>
        <path
            d="M9.83494 13.25C10.0544 13.63 10.37 13.9456 10.75 14.1651C11.13 14.3845 11.5612 14.5 12 14.5C12.4388 14.5 12.87 14.3845 13.25 14.1651C13.63 13.9456 13.9456 13.63 14.1651 13.25"
            stroke="currentColor" stroke-linecap="round"/>
        <rect x="7" y="8" width="3" height="2" rx="1" fill="currentColor"/>
        <rect x="14" y="8" width="3" height="2" rx="1" fill="currentColor"/>
    </symbol>
    <symbol viewBox="0 0 24 24" fill="none" xmlns="http://www.w3.org/2000/svg" id="big_happy">
        <circle cx="12" cy="12" r="9.5" stroke="currentColor" stroke-linecap="round"/>
        <circle cx="9" cy="10" r="1" fill="currentColor" stroke="currentColor" stroke-linecap="round"/>
        <circle cx="15" cy="10" r="1" fill="currentColor" stroke="currentColor" stroke-linecap="round"/>
        <path fill-rule="evenodd" clip-rule="evenodd"
              d="M8.62888 15C8.34911 15 8.20922 15 8.13458 15.1068C8.05995 15.2136 8.10322 15.3318 8.18976 15.5683C8.70588 16.9788 10.2167 18 12 18C13.7833 18 15.2941 16.9788 15.8102 15.5683C15.8968 15.3318 15.94 15.2136 15.8654 15.1068C15.7908 15 15.6509 15 15.3711 15H8.62888Z"
              fill="currentColor"/>
    </symbol>
    <symbol viewBox="0 0 24 24" fill="none" xmlns="http://www.w3.org/2000/svg" id="rofl">
        <circle cx="12" cy="12" r="9.5" stroke="currentColor" stroke-linecap="round"/>
        <path d="M16 8L8 11" stroke="currentColor" stroke-linecap="round"/>
        <path d="M8 8L16 11" stroke="currentColor" stroke-linecap="round"/>
        <path
            d="M8 14.5556C8 14.504 8 14.4782 8.0019 14.4564C8.02305 14.2147 8.2147 14.0231 8.45642 14.0019C8.47817 14 8.50396 14 8.55556 14H15.4444C15.496 14 15.5218 14 15.5436 14.0019C15.7853 14.0231 15.9769 14.2147 15.9981 14.4564C16 14.4782 16 14.504 16 14.5556V15C16 17.2091 14.2091 19 12 19V19C9.79086 19 8 17.2091 8 15V14.5556Z"
            fill="currentColor"/>
    </symbol>
    <symbol viewBox="0 0 24 24" fill="none" xmlns="http://www.w3.org/2000/svg" id="wow">
        <circle cx="12" cy="12" r="9.5" stroke="currentColor" stroke-linecap="round"/>
        <circle cx="9" cy="9" r="1" fill="currentColor" stroke="currentColor" stroke-linecap="round"/>
        <circle cx="15" cy="9" r="1" fill="currentColor" stroke="currentColor" stroke-linecap="round"/>
        <path
            d="M15 15.5C15 16.8807 13.6569 18 12 18C10.3431 18 9 16.8807 9 15.5C9 14.1193 10.3431 13 12 13C13.6569 13 15 14.1193 15 15.5Z"
            fill="currentColor"/>
    </symbol>
    <symbol viewBox="0 0 24 24" fill="none" xmlns="http://www.w3.org/2000/svg" id="bug">
        <path
            d="M7 14.3333C7 13.0872 7 12.4641 7.26795 12C7.44349 11.696 7.69596 11.4435 8 11.2679C8.4641 11 9.08718 11 10.3333 11H13.6667C14.9128 11 15.5359 11 16 11.2679C16.304 11.4435 16.5565 11.696 16.7321 12C17 12.4641 17 13.0872 17 14.3333V16C17 16.9293 17 17.394 16.9231 17.7804C16.6075 19.3671 15.3671 20.6075 13.7804 20.9231C13.394 21 12.9293 21 12 21V21C11.0707 21 10.606 21 10.2196 20.9231C8.63288 20.6075 7.39249 19.3671 7.07686 17.7804C7 17.394 7 16.9293 7 16V14.3333Z"
            stroke="currentColor"/>
        <path
            d="M9 9C9 8.06812 9 7.60218 9.15224 7.23463C9.35523 6.74458 9.74458 6.35523 10.2346 6.15224C10.6022 6 11.0681 6 12 6V6C12.9319 6 13.3978 6 13.7654 6.15224C14.2554 6.35523 14.6448 6.74458 14.8478 7.23463C15 7.60218 15 8.06812 15 9V11H9V9Z"
            stroke="currentColor"/>
        <path d="M12 11V15" stroke="currentColor"/>
        <path d="M15 3L13 6" stroke="currentColor"/>
        <path d="M9 3L11 6" stroke="currentColor"/>
        <path d="M7 16H2" stroke="currentColor"/>
        <path d="M22 16H17" stroke="currentColor"/>
        <path d="M20 9V10C20 11.6569 18.6569 13 17 13V13" stroke="currentColor"/>
        <path d="M20 22V22C20 20.3431 18.6569 19 17 19V19" stroke="currentColor"/>
        <path d="M4 9V10C4 11.6569 5.34315 13 7 13V13" stroke="currentColor"/>
        <path d="M4 22V22C4 20.3431 5.34315 19 7 19V19" stroke="currentColor"/>
    </symbol>
    <symbol viewBox="0 0 24 24" fill="none" xmlns="http://www.w3.org/2000/svg" id="fire">
        <path
            d="M14.5 10.0003C14.5 9.20875 15.5528 8.99895 15.8321 9.73957C16.5077 11.5311 17 13.1337 17 14.0002C17 16.7616 14.7614 19.0002 12 19.0002C9.23858 19.0002 7 16.7616 7 14.0002C7 13.0693 7.56822 11.2887 8.32156 9.33698C9.29743 6.80879 9.78536 5.54469 10.3877 5.4766C10.5804 5.45482 10.7907 5.49399 10.9626 5.58371C11.5 5.86413 11.5 7.24285 11.5 10.0003C11.5 10.8287 12.1716 11.5003 13 11.5003C13.8284 11.5003 14.5 10.8287 14.5 10.0003Z"
            stroke="currentColor"/>
        <path
            d="M11 19L10.7372 18.343C10.2816 17.204 10.4737 15.9079 11.24 14.95V14.95C11.6296 14.463 12.3704 14.463 12.76 14.95V14.95C13.5263 15.9079 13.7184 17.204 13.2628 18.343L13 19"
            stroke="currentColor"/>
    </symbol>
    <symbol viewBox="0 0 24 24" fill="none" xmlns="http://www.w3.org/2000/svg" id="water">
        <path
            d="M12 21.5C16.1012 21.5 19.5 18.4372 19.5 14.5714C19.5 12.1555 18.2672 9.71249 16.8732 7.70906C15.4698 5.69214 13.8515 4.04821 12.9778 3.21778C12.4263 2.69364 11.5737 2.69364 11.0222 3.21779C10.1485 4.04821 8.53016 5.69214 7.1268 7.70906C5.73282 9.71249 4.5 12.1555 4.5 14.5714C4.5 18.4372 7.8988 21.5 12 21.5Z"
            stroke="currentColor"/>
        <path
            d="M12 18C11.4747 18 10.9546 17.8965 10.4693 17.6955C9.98396 17.4945 9.54301 17.1999 9.17157 16.8284C8.80014 16.457 8.5055 16.016 8.30448 15.5307C8.10346 15.0454 8 14.5253 8 14"
            stroke="currentColor" stroke-linecap="round"/>
    </symbol>
    <symbol viewBox="0 0 24 24" fill="none" xmlns="http://www.w3.org/2000/svg" id="label">
        <path
            d="M3 8C3 7.05719 3 6.58579 3.29289 6.29289C3.58579 6 4.05719 6 5 6H15.9296C16.4536 6 16.7156 6 16.9367 6.11833C17.1578 6.23665 17.3031 6.45463 17.5937 6.8906L20.2604 10.8906C20.6189 11.4283 20.7981 11.6972 20.7981 12C20.7981 12.3028 20.6189 12.5717 20.2604 13.1094L17.5937 17.1094C17.3031 17.5454 17.1578 17.7633 16.9367 17.8817C16.7156 18 16.4536 18 15.9296 18H5C4.05719 18 3.58579 18 3.29289 17.7071C3 17.4142 3 16.9428 3 16V8Z"
            fill="currentColor" stroke="#001A24" stroke-width="1.4"/>
        <circle cx="15" cy="12" r="1" fill="#001A24" stroke="#001A24" stroke-width="1.4"/>
    </symbol>
    <symbol viewBox="0 0 24 24" fill="none" xmlns="http://www.w3.org/2000/svg" id="bookmark">
        <path
            d="M4 9C4 6.17157 4 4.75736 4.87868 3.87868C5.75736 3 7.17157 3 10 3H14C16.8284 3 18.2426 3 19.1213 3.87868C20 4.75736 20 6.17157 20 9V15.8276C20 18.5109 20 19.8525 19.1557 20.2629C18.3114 20.6733 17.2565 19.8444 15.1465 18.1866L14.4713 17.656C13.2849 16.7239 12.6917 16.2578 12 16.2578C11.3083 16.2578 10.7151 16.7239 9.52871 17.656L8.85346 18.1866C6.74355 19.8444 5.68859 20.6733 4.84429 20.2629C4 19.8525 4 18.5109 4 15.8276V9Z"
            stroke="currentColor"/>
    </symbol>
    <symbol viewBox="0 0 24 24" fill="none" xmlns="http://www.w3.org/2000/svg" id="pin">
        <path
            d="M14.6358 3.90949C15.2888 3.47412 15.6153 3.25643 15.9711 3.29166C16.3269 3.32689 16.6044 3.60439 17.1594 4.15938L19.8406 6.84062C20.3956 7.39561 20.6731 7.67311 20.7083 8.02888C20.7436 8.38465 20.5259 8.71118 20.0905 9.36424L18.4419 11.8372C17.88 12.68 17.5991 13.1013 17.3749 13.5511C17.2086 13.8845 17.0659 14.2292 16.9476 14.5825C16.7882 15.0591 16.6889 15.5557 16.4902 16.5489L16.2992 17.5038C16.2986 17.5072 16.2982 17.5089 16.298 17.5101C16.1556 18.213 15.3414 18.5419 14.7508 18.1351C14.7497 18.1344 14.7483 18.1334 14.7455 18.1315V18.1315C14.7322 18.1223 14.7255 18.1177 14.7189 18.1131C11.2692 15.7225 8.27754 12.7308 5.88691 9.28108C5.88233 9.27448 5.87772 9.26782 5.86851 9.25451V9.25451C5.86655 9.25169 5.86558 9.25028 5.86486 9.24924C5.45815 8.65858 5.78704 7.84444 6.4899 7.70202C6.49113 7.70177 6.49282 7.70144 6.49618 7.70076L7.45114 7.50977C8.44433 7.31113 8.94092 7.21182 9.4175 7.05236C9.77083 6.93415 10.1155 6.79139 10.4489 6.62514C10.8987 6.40089 11.32 6.11998 12.1628 5.55815L14.6358 3.90949Z"
            stroke="currentColor"/>
        <path d="M5 19L9.5 14.5" stroke="currentColor" stroke-linecap="round"/>
    </symbol>
    <symbol viewBox="0 0 24 24" fill="none" xmlns="http://www.w3.org/2000/svg" id="heart">
        <path
            d="M4.45067 13.9082L11.4033 20.4395C11.6428 20.6644 11.7625 20.7769 11.9037 20.8046C11.9673 20.8171 12.0327 20.8171 12.0963 20.8046C12.2375 20.7769 12.3572 20.6644 12.5967 20.4395L19.5493 13.9082C21.5055 12.0706 21.743 9.0466 20.0978 6.92607L19.7885 6.52734C17.8203 3.99058 13.8696 4.41601 12.4867 7.31365C12.2913 7.72296 11.7087 7.72296 11.5133 7.31365C10.1304 4.41601 6.17972 3.99058 4.21154 6.52735L3.90219 6.92607C2.25695 9.0466 2.4945 12.0706 4.45067 13.9082Z"
            stroke="currentColor"/>
    </symbol>
    <symbol viewBox="0 0 24 24" fill="none" xmlns="http://www.w3.org/2000/svg" id="start">
        <path
            d="M10.1438 6.62758C10.9304 4.66658 11.3237 3.68608 12 3.68608C12.6763 3.68608 13.0696 4.66658 13.8562 6.62758L13.8929 6.7189C14.3373 7.82676 14.5595 8.3807 15.0123 8.71739C15.4652 9.05407 16.0596 9.10731 17.2485 9.21379L17.4635 9.23304C19.4093 9.4073 20.3822 9.49443 20.5904 10.1134C20.7985 10.7324 20.076 11.3897 18.631 12.7044L18.1487 13.1432C17.4172 13.8087 17.0514 14.1415 16.881 14.5776C16.8492 14.659 16.8227 14.7423 16.8018 14.8271C16.6898 15.2818 16.7969 15.7645 17.0111 16.73L17.0778 17.0305C17.4714 18.8048 17.6683 19.692 17.3246 20.0747C17.1962 20.2177 17.0293 20.3206 16.8438 20.3712C16.3476 20.5066 15.6432 19.9326 14.2342 18.7845C13.309 18.0306 12.8464 17.6537 12.3153 17.5689C12.1064 17.5355 11.8936 17.5355 11.6847 17.5689C11.1536 17.6537 10.691 18.0306 9.7658 18.7845C8.35684 19.9326 7.65237 20.5066 7.15617 20.3712C6.97075 20.3206 6.80384 20.2177 6.67542 20.0747C6.33174 19.692 6.52857 18.8048 6.92225 17.0305L6.98892 16.73C7.20313 15.7645 7.31024 15.2818 7.19818 14.8271C7.17728 14.7423 7.15084 14.659 7.11904 14.5776C6.94857 14.1415 6.58282 13.8087 5.85131 13.1432L5.36903 12.7044C3.92398 11.3897 3.20146 10.7324 3.40964 10.1134C3.61782 9.49443 4.59073 9.4073 6.53654 9.23304L6.75148 9.21379C7.94039 9.10731 8.53485 9.05407 8.9877 8.71739C9.44055 8.3807 9.66275 7.82676 10.1071 6.71889L10.1438 6.62758Z"
            stroke="currentColor"/>
    </symbol>
</svg>
