<svg width="0" height="0" class="hidden">
    <symbol viewBox="0 0 24 24" fill="none" xmlns="http://www.w3.org/2000/svg" id="user">
        <circle cx="12" cy="10" r="3" stroke="currentColor" stroke-width="2" stroke-linecap="round"/>
        <circle cx="12" cy="12" r="9" stroke="currentColor" stroke-width="2"/>
        <path
            d="M17.7805 18.8264C17.9076 18.7566 17.9678 18.6055 17.914 18.4708C17.5284 17.5045 16.7856 16.6534 15.7814 16.0332C14.6966 15.3632 13.3674 15 12 15C10.6326 15 9.30341 15.3632 8.21858 16.0332C7.21444 16.6534 6.4716 17.5045 6.08598 18.4708C6.03223 18.6055 6.09236 18.7566 6.21948 18.8264C9.81971 20.803 14.1803 20.803 17.7805 18.8264Z"
            fill="currentColor"/>
    </symbol>
    <symbol viewBox="0 0 24 24" fill="none" xmlns="http://www.w3.org/2000/svg" id="home">
        <path
            d="M20 8L14 2.74C13.45 2.24804 12.7379 1.97607 12 1.97607C11.2621 1.97607 10.55 2.24804 10 2.74L4 8C3.68237 8.28407 3.4289 8.63256 3.25647 9.02224C3.08404 9.41193 2.99661 9.83388 3 10.26V19C3 19.7956 3.31607 20.5587 3.87868 21.1213C4.44129 21.6839 5.20435 22 6 22H18C18.7956 22 19.5587 21.6839 20.1213 21.1213C20.6839 20.5587 21 19.7956 21 19V10.25C21.002 9.82556 20.9138 9.40554 20.7415 9.01768C20.5691 8.62982 20.3164 8.28295 20 8ZM14 20H10V15C10 14.7348 10.1054 14.4804 10.2929 14.2929C10.4804 14.1054 10.7348 14 11 14H13C13.2652 14 13.5196 14.1054 13.7071 14.2929C13.8946 14.4804 14 14.7348 14 15V20ZM19 19C19 19.2652 18.8946 19.5196 18.7071 19.7071C18.5196 19.8946 18.2652 20 18 20H16V15C16 14.2043 15.6839 13.4413 15.1213 12.8787C14.5587 12.3161 13.7956 12 13 12H11C10.2043 12 9.44129 12.3161 8.87868 12.8787C8.31607 13.4413 8 14.2043 8 15V20H6C5.73478 20 5.48043 19.8946 5.29289 19.7071C5.10536 19.5196 5 19.2652 5 19V10.25C5.00018 10.108 5.03059 9.96769 5.08922 9.83838C5.14784 9.70906 5.23333 9.59371 5.34 9.5L11.34 4.25C11.5225 4.08968 11.7571 4.00126 12 4.00126C12.2429 4.00126 12.4775 4.08968 12.66 4.25L18.66 9.5C18.7667 9.59371 18.8522 9.70906 18.9108 9.83838C18.9694 9.96769 18.9998 10.108 19 10.25V19Z"
            fill="currentColor"/>
    </symbol>
    <symbol viewBox="0 0 24 24" fill="none" xmlns="http://www.w3.org/2000/svg" id="add_square">
        <path
            d="M3 11C3 7.22876 3 5.34315 4.17157 4.17157C5.34315 3 7.22876 3 11 3H13C16.7712 3 18.6569 3 19.8284 4.17157C21 5.34315 21 7.22876 21 11V13C21 16.7712 21 18.6569 19.8284 19.8284C18.6569 21 16.7712 21 13 21H11C7.22876 21 5.34315 21 4.17157 19.8284C3 18.6569 3 16.7712 3 13V11Z"
            stroke="currentColor" stroke-width="2"/>
        <path d="M12 8L12 16" stroke="currentColor" stroke-width="2" stroke-linecap="square" stroke-linejoin="round"/>
        <path d="M16 12L8 12" stroke="currentColor" stroke-width="2" stroke-linecap="square" stroke-linejoin="round"/>
    </symbol>
    <symbol viewBox="0 0 24 24" fill="none" xmlns="http://www.w3.org/2000/svg" id="close">
        <path
            d="M13.41 12L19.71 5.71C19.8983 5.52169 20.0041 5.2663 20.0041 5C20.0041 4.7337 19.8983 4.4783 19.71 4.29C19.5217 4.10169 19.2663 3.99591 19 3.99591C18.7337 3.99591 18.4783 4.10169 18.29 4.29L12 10.59L5.71 4.29C5.5217 4.10169 5.2663 3.99591 5 3.99591C4.7337 3.99591 4.4783 4.10169 4.29 4.29C4.1017 4.4783 3.99591 4.7337 3.99591 5C3.99591 5.2663 4.1017 5.52169 4.29 5.71L10.59 12L4.29 18.29C4.19627 18.383 4.12188 18.4936 4.07111 18.6154C4.02034 18.7373 3.9942 18.868 3.9942 19C3.9942 19.132 4.02034 19.2627 4.07111 19.3846C4.12188 19.5064 4.19627 19.617 4.29 19.71C4.38296 19.8037 4.49356 19.8781 4.61542 19.9289C4.73728 19.9797 4.86799 20.0058 5 20.0058C5.13201 20.0058 5.26272 19.9797 5.38458 19.9289C5.50644 19.8781 5.61704 19.8037 5.71 19.71L12 13.41L18.29 19.71C18.383 19.8037 18.4936 19.8781 18.6154 19.9289C18.7373 19.9797 18.868 20.0058 19 20.0058C19.132 20.0058 19.2627 19.9797 19.3846 19.9289C19.5064 19.8781 19.617 19.8037 19.71 19.71C19.8037 19.617 19.8781 19.5064 19.9289 19.3846C19.9797 19.2627 20.0058 19.132 20.0058 19C20.0058 18.868 19.9797 18.7373 19.9289 18.6154C19.8781 18.4936 19.8037 18.383 19.71 18.29L13.41 12Z"
            fill="currentColor"/>
    </symbol>
    <symbol viewBox="0 0 24 24" fill="none" xmlns="http://www.w3.org/2000/svg" id="logout">
        <path
            d="M22 12L22.7809 12.6247L23.2806 12L22.7809 11.3753L22 12ZM13 11C12.4477 11 12 11.4477 12 12C12 12.5523 12.4477 13 13 13V11ZM18.7809 17.6247L22.7809 12.6247L21.2191 11.3753L17.2191 16.3753L18.7809 17.6247ZM22.7809 11.3753L18.7809 6.3753L17.2191 7.6247L21.2191 12.6247L22.7809 11.3753ZM22 11H13V13H22V11Z"
            fill="currentColor"/>
        <path
            d="M14 15.8681V16.6115C14 18.2298 14 19.039 13.526 19.5985C13.0521 20.158 12.2539 20.291 10.6576 20.5571L8.98639 20.8356C5.7433 21.3761 4.12175 21.6464 3.06088 20.7477C2 19.849 2 18.2051 2 14.9172V9.08276C2 5.79493 2 4.15102 3.06088 3.25232C4.12175 2.35363 5.7433 2.62388 8.98639 3.1644L10.6576 3.44293C12.2539 3.70899 13.0521 3.84201 13.526 4.4015C14 4.961 14 5.77017 14 7.38851V7.93403"
            stroke="currentColor" stroke-width="2"/>
    </symbol>
    <symbol viewBox="0 0 24 24" fill="none" xmlns="http://www.w3.org/2000/svg" id="eye">
        <circle cx="12" cy="12" r="3" stroke="currentColor" stroke-width="2"/>
        <path
            d="M20.188 10.9343C20.5762 11.4056 20.7703 11.6412 20.7703 12C20.7703 12.3588 20.5762 12.5944 20.188 13.0657C18.7679 14.7899 15.6357 18 12 18C8.36427 18 5.23206 14.7899 3.81197 13.0657C3.42381 12.5944 3.22973 12.3588 3.22973 12C3.22973 11.6412 3.42381 11.4056 3.81197 10.9343C5.23206 9.21014 8.36427 6 12 6C15.6357 6 18.7679 9.21014 20.188 10.9343Z"
            stroke="currentColor" stroke-width="2"/>
    </symbol>
    <symbol viewBox="0 0 24 24" fill="none" xmlns="http://www.w3.org/2000/svg" id="chevron_left">
        <path d="M15 6L9 12L15 18" stroke="currentColor" stroke-width="2"/>
    </symbol>
    <symbol viewBox="0 0 24 24" fill="none" xmlns="http://www.w3.org/2000/svg" id="chevron_right">
        <path d="M9 6L15 12L9 18" stroke="currentColor" stroke-width="2"/>
    </symbol>
    <symbol viewBox="0 0 24 24" fill="none" xmlns="http://www.w3.org/2000/svg" id="three_dots">
        <circle cx="12" cy="12" r="1" stroke="currentColor" stroke-width="2" stroke-linecap="round"/>
        <circle cx="6" cy="12" r="1" stroke="currentColor" stroke-width="2" stroke-linecap="round"/>
        <circle cx="18" cy="12" r="1" stroke="currentColor" stroke-width="2" stroke-linecap="round"/>
    </symbol>
    <symbol viewBox="0 0 24 24" fill="none" xmlns="http://www.w3.org/2000/svg" id="trashcan_light">
        <path d="M9.5 14.5L9.5 11.5" stroke="currentColor" stroke-linecap="round"/>
        <path d="M14.5 14.5L14.5 11.5" stroke="currentColor" stroke-linecap="round"/>
        <path
            d="M3 6.5H21V6.5C19.5955 6.5 18.8933 6.5 18.3889 6.83706C18.1705 6.98298 17.983 7.17048 17.8371 7.38886C17.5 7.89331 17.5 8.59554 17.5 10V15.5C17.5 17.3856 17.5 18.3284 16.9142 18.9142C16.3284 19.5 15.3856 19.5 13.5 19.5H10.5C8.61438 19.5 7.67157 19.5 7.08579 18.9142C6.5 18.3284 6.5 17.3856 6.5 15.5V10C6.5 8.59554 6.5 7.89331 6.16294 7.38886C6.01702 7.17048 5.82952 6.98298 5.61114 6.83706C5.10669 6.5 4.40446 6.5 3 6.5V6.5Z"
            stroke="currentColor" stroke-linecap="round"/>
        <path d="M9.5 3.50024C9.5 3.50024 10 2.5 12 2.5C14 2.5 14.5 3.5 14.5 3.5" stroke="#222222"
              stroke-linecap="round"/>
    </symbol>
    <symbol viewBox="0 0 24 24" fill="none" xmlns="http://www.w3.org/2000/svg" id="trashcan">
        <path d="M10 15L10 12" stroke="currentColor" stroke-width="2" stroke-linecap="round"/>
        <path d="M14 15L14 12" stroke="currentColor" stroke-width="2" stroke-linecap="round"/>
        <path
            d="M3 7H21V7C20.0681 7 19.6022 7 19.2346 7.15224C18.7446 7.35523 18.3552 7.74458 18.1522 8.23463C18 8.60218 18 9.06812 18 10V16C18 17.8856 18 18.8284 17.4142 19.4142C16.8284 20 15.8856 20 14 20H10C8.11438 20 7.17157 20 6.58579 19.4142C6 18.8284 6 17.8856 6 16V10C6 9.06812 6 8.60218 5.84776 8.23463C5.64477 7.74458 5.25542 7.35523 4.76537 7.15224C4.39782 7 3.93188 7 3 7V7Z"
            stroke="currentColor" stroke-width="2" stroke-linecap="round"/>
        <path
            d="M10.0681 3.37059C10.1821 3.26427 10.4332 3.17033 10.7825 3.10332C11.1318 3.03632 11.5597 3 12 3C12.4403 3 12.8682 3.03632 13.2175 3.10332C13.5668 3.17033 13.8179 3.26427 13.9319 3.37059"
            stroke="currentColor" stroke-width="2" stroke-linecap="round"/>
    </symbol>
    <symbol viewBox="0 0 24 24" fill="none" xmlns="http://www.w3.org/2000/svg" id="share">
        <path
            d="M18 14C17.4092 14.0039 16.8265 14.1387 16.294 14.3946C15.7615 14.6505 15.2922 15.0211 14.92 15.48L9.82 13.13C10.0598 12.3957 10.0598 11.6043 9.82 10.87L14.92 8.52C15.5216 9.24597 16.3603 9.73608 17.2881 9.90384C18.216 10.0716 19.1732 9.90623 19.9909 9.4369C20.8087 8.96758 21.4344 8.22448 21.7575 7.33874C22.0807 6.45301 22.0806 5.48158 21.7573 4.59591C21.434 3.71023 20.8081 2.96724 19.9903 2.49807C19.1725 2.02889 18.2152 1.86369 17.2874 2.03162C16.3597 2.19955 15.521 2.68982 14.9195 3.41589C14.318 4.14197 13.9924 5.05718 14 6C14.003 6.23823 14.0264 6.47577 14.07 6.71L8.79 9.14C8.22708 8.58958 7.51424 8.21752 6.7408 8.07043C5.96736 7.92334 5.16772 8.00777 4.44205 8.31313C3.71638 8.6185 3.09696 9.13122 2.6614 9.78706C2.22584 10.4429 1.9935 11.2127 1.9935 12C1.9935 12.7873 2.22584 13.5571 2.6614 14.2129C3.09696 14.8688 3.71638 15.3815 4.44205 15.6869C5.16772 15.9922 5.96736 16.0767 6.7408 15.9296C7.51424 15.7825 8.22708 15.4104 8.79 14.86L14.07 17.29C14.0264 17.5242 14.003 17.7618 14 18C14 18.7911 14.2346 19.5645 14.6741 20.2223C15.1136 20.8801 15.7384 21.3928 16.4693 21.6955C17.2002 21.9983 18.0044 22.0775 18.7804 21.9231C19.5563 21.7688 20.269 21.3878 20.8284 20.8284C21.3878 20.269 21.7688 19.5563 21.9231 18.7804C22.0775 18.0044 21.9983 17.2002 21.6955 16.4693C21.3928 15.7384 20.8801 15.1136 20.2223 14.6741C19.5645 14.2346 18.7911 14 18 14ZM18 4C18.3956 4 18.7822 4.1173 19.1111 4.33706C19.44 4.55682 19.6964 4.86918 19.8478 5.23463C19.9991 5.60009 20.0387 6.00222 19.9616 6.39018C19.8844 6.77814 19.6939 7.13451 19.4142 7.41421C19.1345 7.69392 18.7781 7.8844 18.3902 7.96157C18.0022 8.03874 17.6001 7.99913 17.2346 7.84776C16.8692 7.69638 16.5568 7.44004 16.3371 7.11114C16.1173 6.78224 16 6.39556 16 6C16 5.46957 16.2107 4.96086 16.5858 4.58579C16.9609 4.21071 17.4696 4 18 4ZM6 14C5.60443 14 5.21776 13.8827 4.88886 13.6629C4.55996 13.4432 4.30361 13.1308 4.15224 12.7654C4.00086 12.3999 3.96126 11.9978 4.03843 11.6098C4.1156 11.2219 4.30608 10.8655 4.58578 10.5858C4.86549 10.3061 5.22186 10.1156 5.60982 10.0384C5.99778 9.96126 6.39991 10.0009 6.76536 10.1522C7.13082 10.3036 7.44317 10.56 7.66294 10.8889C7.8827 11.2178 8 11.6044 8 12C8 12.5304 7.78928 13.0391 7.41421 13.4142C7.03914 13.7893 6.53043 14 6 14ZM18 20C17.6044 20 17.2178 19.8827 16.8889 19.6629C16.56 19.4432 16.3036 19.1308 16.1522 18.7654C16.0009 18.3999 15.9613 17.9978 16.0384 17.6098C16.1156 17.2219 16.3061 16.8655 16.5858 16.5858C16.8655 16.3061 17.2219 16.1156 17.6098 16.0384C17.9978 15.9613 18.3999 16.0009 18.7654 16.1522C19.1308 16.3036 19.4432 16.56 19.6629 16.8889C19.8827 17.2178 20 17.6044 20 18C20 18.5304 19.7893 19.0391 19.4142 19.4142C19.0391 19.7893 18.5304 20 18 20Z"
            fill="currentColor"/>
    </symbol>
    <symbol viewBox="0 0 24 24" fill="none" xmlns="http://www.w3.org/2000/svg" id="save">
        <path d="M16 21V19C16 17.1144 16 16.1716 15.4142 15.5858C14.8284 15 13.8856 15 12 15H11C9.11438 15 8.17157 15 7.58579 15.5858C7 16.1716 7 17.1144 7 19V21" stroke="currentColor" stroke-width="2"/>
        <path d="M7 8H12" stroke="currentColor" stroke-width="2" stroke-linecap="round"/>
        <path d="M3 9C3 6.17157 3 4.75736 3.87868 3.87868C4.75736 3 6.17157 3 9 3H16.1716C16.5803 3 16.7847 3 16.9685 3.07612C17.1522 3.15224 17.2968 3.29676 17.5858 3.58579L20.4142 6.41421C20.7032 6.70324 20.8478 6.84776 20.9239 7.03153C21 7.2153 21 7.41968 21 7.82843V15C21 17.8284 21 19.2426 20.1213 20.1213C19.2426 21 17.8284 21 15 21H9C6.17157 21 4.75736 21 3.87868 20.1213C3 19.2426 3 17.8284 3 15V9Z" stroke="currentColor" stroke-width="2"/>
    </symbol>
    <symbol viewBox="0 0 24 24" fill="none" xmlns="http://www.w3.org/2000/svg" id="search">
        <circle cx="11" cy="11" r="7" stroke="currentColor" stroke-width="2"/>
        <path d="M20 20L17 17" stroke="currentColor" stroke-width="2" stroke-linecap="round"/>
    </symbol>

</svg>
