<svg width="0" height="0" class="hidden" xmlns="http://www.w3.org/2000/svg">
    <symbol width="110" height="132" viewBox="0 0 110 132" fill="none" id="logo">
        <path fill-rule="evenodd" clip-rule="evenodd" d="M75.3023 2.57434C77.5114 2.57434 79.3023 4.3652 79.3023 6.57434V24.3175C79.3023 26.5267 77.5114 28.3175 75.3023 28.3175L57.7209 28.3175C55.5118 28.3175 53.7209 30.1084 53.7209 32.3175L53.7209 101.547C53.7209 103.756 51.93 105.547 49.7209 105.547H32.1395C29.9304 105.547 28.1395 103.756 28.1395 101.547L28.1395 32.3175C28.1395 30.1084 26.3486 28.3175 24.1395 28.3175H6.5581C4.34896 28.3175 2.55811 26.5267 2.55811 24.3175V6.57434C2.55811 4.3652 4.34897 2.57434 6.55811 2.57434H75.3023ZM58.8372 127.29V105.547L58.8372 37.4662C58.8372 35.257 60.628 33.4662 62.8372 33.4662H80.4186C82.6277 33.4662 84.4186 35.257 84.4186 37.4662L84.4186 101.547C84.4186 103.756 86.2094 105.547 88.4186 105.547H106C108.209 105.547 110 107.338 110 109.547V127.29C110 129.499 108.209 131.29 106 131.29L84.4186 131.29H62.8372C60.628 131.29 58.8372 129.499 58.8372 127.29Z" fill="#52D1FF"/>
        <path fill-rule="evenodd" clip-rule="evenodd" d="M72.7442 0C74.9533 0 76.7442 1.79086 76.7442 4V21.7432C76.7442 23.9523 74.9533 25.7432 72.7442 25.7432H55.1628C52.9536 25.7432 51.1628 27.5341 51.1628 29.7432L51.1628 98.9728C51.1628 101.182 49.3719 102.973 47.1628 102.973H29.5814C27.3723 102.973 25.5814 101.182 25.5814 98.9728L25.5814 29.7432C25.5814 27.5341 23.7905 25.7432 21.5814 25.7432H4C1.79086 25.7432 0 23.9523 0 21.7432V4C0 1.79086 1.79086 0 4 0H72.7442ZM56.2791 124.716V102.973L56.2791 34.8918C56.2791 32.6827 58.0699 30.8918 60.2791 30.8918H77.8605C80.0696 30.8918 81.8605 32.6827 81.8605 34.8918V98.9728C81.8605 101.182 83.6513 102.973 85.8605 102.973H103.442C105.651 102.973 107.442 104.764 107.442 106.973V124.716C107.442 126.925 105.651 128.716 103.442 128.716H81.8605H60.2791C58.0699 128.716 56.2791 126.925 56.2791 124.716Z" fill="#FF7F51"/>
    </symbol>
</svg>
