<svg width="0" height="0" class="hidden">
    <symbol viewBox="0 0 300 151" fill="none" xmlns="http://www.w3.org/2000/svg" id="logo">
        <path
            d="M283.852 1.47021C265.831 5.69854 244.631 14.5027 225.18 25.8005C212.558 33.0784 195.648 44.24 196.361 44.8627C196.52 45.0017 199.934 46.5252 203.984 48.2598C211.683 51.5179 217.322 54.6371 220.815 57.4087L222.798 59.0017L225.737 55.3293C229.867 50.1308 245.822 36.684 254.874 30.7906C266.623 23.1651 270.594 21.6416 284.645 19.768C291.631 18.8673 292.901 18.5198 295.124 16.5794C298.298 13.8772 300.285 9.50991 299.967 5.97383C299.495 1.12542 293.064 -0.678701 283.852 1.47021Z"
            fill="currentColor"/>
        <path
            d="M97.6782 37.2373C96.169 37.3763 91.0108 37.8601 86.1679 38.277C58.5399 40.6344 29.9569 48.6741 14.9536 58.3789C-0.609832 68.5007 -4.25886 80.9772 5.10861 92.2056C6.61781 93.9375 8.60151 97.4041 9.55357 99.831C16.6986 118.34 34.8794 133.241 61.5553 142.392C77.5137 147.869 94.5833 150.571 113.955 150.571C129.197 150.64 137.692 149.809 150.874 146.965C185.408 139.482 210.734 122.568 219.149 101.218C220.42 98.1685 222.642 94.0792 224.231 92.0693C228.201 87.0097 229.787 82.5729 229.233 77.9276C227.007 59.4881 195.094 44.1705 146.903 38.555C138.329 37.5153 103.871 36.6145 97.6782 37.2373ZM138.249 40.9818C165.243 43.3392 189.219 49.1605 204.7 57.0639C210.339 59.9051 219.149 67.461 221.133 71.1361C230.898 89.2976 203.745 107.251 155.634 114.39C134.594 117.509 102.84 117.995 82.277 115.568C49.3286 111.546 25.114 103.437 13.2057 92.2751C8.28314 87.702 6.37904 83.9574 6.37904 78.6894C6.37904 72.8654 8.99948 68.5676 15.9853 62.8852C30.0365 51.5179 57.2695 43.823 93.7108 40.7734C100.458 40.1506 130.786 40.3564 138.249 40.9818Z"
            fill="currentColor"/>
        <path
            d="M93.7077 71.5504C69.7319 73.9773 49.4082 80.2155 39.3244 88.2552C35.3539 91.3743 31.3865 96.7119 32.1794 97.8906C32.9722 98.9998 47.899 103.642 57.6644 105.791C77.4341 110.228 87.9924 111.268 114.35 111.268C139.517 111.337 147.457 110.645 165.638 107.109C173.974 105.516 185.962 102.258 193.585 99.553C197.555 98.0964 197.714 97.1262 194.616 92.8978C187.232 82.6397 163.811 74.2525 134.833 71.5477C125.943 70.6496 102.362 70.7191 93.7077 71.5504Z"
            fill="currentColor"/>
    </symbol>
</svg>
